<svg 
    version="1.1" 
    id="Layer_1" 
    xmlns="http://www.w3.org/2000/svg" 
    xmlns:xlink="http://www.w3.org/1999/xlink" 
    viewBox="0 0 1920 1080" 
    xml:space="preserve"
    width="100%" 
    height="100%"
    style="width: 150; height: 200; fill: #915EFF;"
>
  <path 
    d="M858,592.6c0,2.7,0,4.6,0,6.6c0,67.2,0,134.3,0,201.5c0,11.9-4.5,16.4-16.2,16.4c-22.7,0-45.3,0-68,0
      c-10.5,0-15.4-4.7-15.4-15.2c0-101.5,0-203,0-304.5c0-1.3,0.2-2.6,0.3-4.4c30.1,0,60,0,90.8,0c-2-3.6-3.6-6.4-5.2-9.3
      c-26-45.7-51.9-91.5-78.1-137.2c-5.5-9.6-8.9-19.2-8.1-30.6c0.8-10.8,0.1-21.7,0.2-32.5c0.1-9.6,5-14.4,14.6-14.4
      c61.7,0,123.3-0.1,185,0c32.4,0.1,64.2,4.6,94.3,17c51.3,21.3,87.2,57.4,100.9,112.2c9.5,38.1,2.8,74.5-17.5,108.1
      c-21,34.8-51.9,57.6-89.6,71.5c-9.3,3.4-18.9,6.1-28.9,9.2c0.9,1.7,1.6,3.2,2.5,4.8c38.1,67.3,76.2,134.5,114.1,201.9
      c2,3.5,3,8.1,3,12.2c-0.1,6.6-5.1,11-11.8,11c-28.2,0.1-56.3,0-84.5,0c-6.5,0-10.2-3.9-13.1-9.2c-15.5-27.6-31.2-55.1-46.7-82.7
      c-24.2-42.8-48.4-85.6-72.4-128.4c-1.8-3.2-3.8-4.4-7.4-4.3C886.8,592.7,872.8,592.6,858,592.6z M894.1,368.6c1.3,2.6,2.1,4.2,3,5.8
      c19.9,35.4,40.3,70.5,59.5,106.3c5.2,9.7,10.5,13.4,21.7,11.6c20-3.2,39.2-7.9,55.8-20c29.6-21.4,30.3-58.9,1.7-81.5
      c-19.9-15.7-43.3-20.7-67.8-21.8c-18.8-0.8-37.6-0.3-56.5-0.4C906,368.6,900.6,368.6,894.1,368.6z" 
    fill="#915EFF" 
  />
</svg>
